<?xml version="1.0" encoding="UTF-8" standalone="no"?>
<!DOCTYPE svg PUBLIC "-//W3C//DTD SVG 1.1//EN"
 "http://www.w3.org/Graphics/SVG/1.1/DTD/svg11.dtd">
<!-- Generated by graphviz version 3.0.0 (20220226.1711)
 -->
<!-- Title: dependencies Pages: 1 -->
<svg width="2223pt" height="247pt"
 viewBox="0.00 0.00 2223.00 246.80" xmlns="http://www.w3.org/2000/svg" xmlns:xlink="http://www.w3.org/1999/xlink">
<g id="graph0" class="graph" transform="scale(1 1) rotate(0) translate(4 242.8)">
<title>dependencies</title>
<polygon fill="white" stroke="transparent" points="-4,4 -4,-242.8 2219,-242.8 2219,4 -4,4"/>
<text text-anchor="middle" x="1107.5" y="-8.2" font-family="sans-serif" font-size="14.00">dependencies</text>
<g id="clust1" class="cluster">
<title>cluster_AppModule</title>
<polygon fill="none" stroke="black" stroke-dasharray="1,5" points="8,-32.8 8,-230.8 2207,-230.8 2207,-32.8 8,-32.8"/>
</g>
<g id="clust15" class="cluster">
<title>cluster_AppModule_imports</title>
<polygon fill="none" stroke="black" points="2055,-40.8 2055,-92.8 2199,-92.8 2199,-40.8 2055,-40.8"/>
</g>
<g id="clust17" class="cluster">
<title>cluster_AppModule_bootstrap</title>
<polygon fill="none" stroke="black" points="1111,-170.8 1111,-222.8 1235,-222.8 1235,-170.8 1111,-170.8"/>
</g>
<g id="clust2" class="cluster">
<title>cluster_AppModule_declarations</title>
<polygon fill="none" stroke="black" points="16,-40.8 16,-92.8 2047,-92.8 2047,-40.8 16,-40.8"/>
</g>
<!-- AppComponent -->
<g id="node1" class="node">
<title>AppComponent</title>
<polygon fill="#ffffb3" stroke="black" points="2038.94,-84.8 1933.06,-84.8 1933.06,-48.8 2038.94,-48.8 2038.94,-84.8"/>
<text text-anchor="middle" x="1986" y="-62.6" font-family="Times,serif" font-size="14.00">AppComponent</text>
</g>
<!-- AppModule -->
<g id="node13" class="node">
<title>AppModule</title>
<polygon fill="#8dd3c7" stroke="black" points="1214.66,-149.8 1211.66,-153.8 1190.66,-153.8 1187.66,-149.8 1131.34,-149.8 1131.34,-113.8 1214.66,-113.8 1214.66,-149.8"/>
<text text-anchor="middle" x="1173" y="-127.6" font-family="Times,serif" font-size="14.00">AppModule</text>
</g>
<!-- AppComponent&#45;&gt;AppModule -->
<g id="edge1" class="edge">
<title>AppComponent&#45;&gt;AppModule</title>
<path fill="none" stroke="black" d="M1986,-84.84C1986,-106.46 1986,-139.8 1986,-139.8 1986,-139.8 1224.72,-139.8 1224.72,-139.8"/>
<polygon fill="black" stroke="black" points="1224.72,-136.3 1214.72,-139.8 1224.72,-143.3 1224.72,-136.3"/>
</g>
<!-- DeleteProfileComponent -->
<g id="node2" class="node">
<title>DeleteProfileComponent</title>
<polygon fill="#ffffb3" stroke="black" points="1914.97,-84.8 1759.03,-84.8 1759.03,-48.8 1914.97,-48.8 1914.97,-84.8"/>
<text text-anchor="middle" x="1837" y="-62.6" font-family="Times,serif" font-size="14.00">DeleteProfileComponent</text>
</g>
<!-- DeleteProfileComponent&#45;&gt;AppModule -->
<g id="edge2" class="edge">
<title>DeleteProfileComponent&#45;&gt;AppModule</title>
<path fill="none" stroke="black" d="M1837,-85.02C1837,-105.17 1837,-134.8 1837,-134.8 1837,-134.8 1224.79,-134.8 1224.79,-134.8"/>
<polygon fill="black" stroke="black" points="1224.79,-131.3 1214.79,-134.8 1224.79,-138.3 1224.79,-131.3"/>
</g>
<!-- DirectorCardComponent -->
<g id="node3" class="node">
<title>DirectorCardComponent</title>
<polygon fill="#ffffb3" stroke="black" points="1740.69,-84.8 1585.31,-84.8 1585.31,-48.8 1740.69,-48.8 1740.69,-84.8"/>
<text text-anchor="middle" x="1663" y="-62.6" font-family="Times,serif" font-size="14.00">DirectorCardComponent</text>
</g>
<!-- DirectorCardComponent&#45;&gt;AppModule -->
<g id="edge3" class="edge">
<title>DirectorCardComponent&#45;&gt;AppModule</title>
<path fill="none" stroke="black" d="M1663,-85.02C1663,-103.63 1663,-129.8 1663,-129.8 1663,-129.8 1224.78,-129.8 1224.78,-129.8"/>
<polygon fill="black" stroke="black" points="1224.78,-126.3 1214.78,-129.8 1224.78,-133.3 1224.78,-126.3"/>
</g>
<!-- EditProfileComponent -->
<g id="node4" class="node">
<title>EditProfileComponent</title>
<polygon fill="#ffffb3" stroke="black" points="1567.27,-84.8 1424.73,-84.8 1424.73,-48.8 1567.27,-48.8 1567.27,-84.8"/>
<text text-anchor="middle" x="1496" y="-62.6" font-family="Times,serif" font-size="14.00">EditProfileComponent</text>
</g>
<!-- EditProfileComponent&#45;&gt;AppModule -->
<g id="edge4" class="edge">
<title>EditProfileComponent&#45;&gt;AppModule</title>
<path fill="none" stroke="black" d="M1496,-84.83C1496,-101.86 1496,-124.8 1496,-124.8 1496,-124.8 1224.9,-124.8 1224.9,-124.8"/>
<polygon fill="black" stroke="black" points="1224.9,-121.3 1214.9,-124.8 1224.9,-128.3 1224.9,-121.3"/>
</g>
<!-- GenreCardComponent -->
<g id="node5" class="node">
<title>GenreCardComponent</title>
<polygon fill="#ffffb3" stroke="black" points="1406.25,-84.8 1263.75,-84.8 1263.75,-48.8 1406.25,-48.8 1406.25,-84.8"/>
<text text-anchor="middle" x="1335" y="-62.6" font-family="Times,serif" font-size="14.00">GenreCardComponent</text>
</g>
<!-- GenreCardComponent&#45;&gt;AppModule -->
<g id="edge5" class="edge">
<title>GenreCardComponent&#45;&gt;AppModule</title>
<path fill="none" stroke="black" d="M1335,-85.04C1335,-100.37 1335,-119.8 1335,-119.8 1335,-119.8 1224.72,-119.8 1224.72,-119.8"/>
<polygon fill="black" stroke="black" points="1224.72,-116.3 1214.72,-119.8 1224.72,-123.3 1224.72,-116.3"/>
</g>
<!-- MovieCardComponent -->
<g id="node6" class="node">
<title>MovieCardComponent</title>
<polygon fill="#ffffb3" stroke="black" points="1245.6,-84.8 1100.4,-84.8 1100.4,-48.8 1245.6,-48.8 1245.6,-84.8"/>
<text text-anchor="middle" x="1173" y="-62.6" font-family="Times,serif" font-size="14.00">MovieCardComponent</text>
</g>
<!-- MovieCardComponent&#45;&gt;AppModule -->
<g id="edge6" class="edge">
<title>MovieCardComponent&#45;&gt;AppModule</title>
<path fill="none" stroke="black" d="M1173,-84.91C1173,-84.91 1173,-103.79 1173,-103.79"/>
<polygon fill="black" stroke="black" points="1169.5,-103.79 1173,-113.79 1176.5,-103.79 1169.5,-103.79"/>
</g>
<!-- NavbarComponent -->
<g id="node7" class="node">
<title>NavbarComponent</title>
<polygon fill="#ffffb3" stroke="black" points="1082.03,-84.8 959.97,-84.8 959.97,-48.8 1082.03,-48.8 1082.03,-84.8"/>
<text text-anchor="middle" x="1021" y="-62.6" font-family="Times,serif" font-size="14.00">NavbarComponent</text>
</g>
<!-- NavbarComponent&#45;&gt;AppModule -->
<g id="edge7" class="edge">
<title>NavbarComponent&#45;&gt;AppModule</title>
<path fill="none" stroke="black" d="M1021,-85.04C1021,-100.37 1021,-119.8 1021,-119.8 1021,-119.8 1121.06,-119.8 1121.06,-119.8"/>
<polygon fill="black" stroke="black" points="1121.06,-123.3 1131.06,-119.8 1121.06,-116.3 1121.06,-123.3"/>
</g>
<!-- ProfilePageComponent -->
<g id="node8" class="node">
<title>ProfilePageComponent</title>
<polygon fill="#ffffb3" stroke="black" points="941.15,-84.8 794.85,-84.8 794.85,-48.8 941.15,-48.8 941.15,-84.8"/>
<text text-anchor="middle" x="868" y="-62.6" font-family="Times,serif" font-size="14.00">ProfilePageComponent</text>
</g>
<!-- ProfilePageComponent&#45;&gt;AppModule -->
<g id="edge8" class="edge">
<title>ProfilePageComponent&#45;&gt;AppModule</title>
<path fill="none" stroke="black" d="M868,-84.83C868,-101.86 868,-124.8 868,-124.8 868,-124.8 1121.23,-124.8 1121.23,-124.8"/>
<polygon fill="black" stroke="black" points="1121.23,-128.3 1131.23,-124.8 1121.23,-121.3 1121.23,-128.3"/>
</g>
<!-- SynopsisCardComponent -->
<g id="node9" class="node">
<title>SynopsisCardComponent</title>
<polygon fill="#ffffb3" stroke="black" points="776.62,-84.8 617.38,-84.8 617.38,-48.8 776.62,-48.8 776.62,-84.8"/>
<text text-anchor="middle" x="697" y="-62.6" font-family="Times,serif" font-size="14.00">SynopsisCardComponent</text>
</g>
<!-- SynopsisCardComponent&#45;&gt;AppModule -->
<g id="edge9" class="edge">
<title>SynopsisCardComponent&#45;&gt;AppModule</title>
<path fill="none" stroke="black" d="M697,-85.02C697,-103.63 697,-129.8 697,-129.8 697,-129.8 1121.18,-129.8 1121.18,-129.8"/>
<polygon fill="black" stroke="black" points="1121.18,-133.3 1131.18,-129.8 1121.18,-126.3 1121.18,-133.3"/>
</g>
<!-- UserLoginFormComponent -->
<g id="node10" class="node">
<title>UserLoginFormComponent</title>
<polygon fill="#ffffb3" stroke="black" points="599.55,-84.8 428.45,-84.8 428.45,-48.8 599.55,-48.8 599.55,-84.8"/>
<text text-anchor="middle" x="514" y="-62.6" font-family="Times,serif" font-size="14.00">UserLoginFormComponent</text>
</g>
<!-- UserLoginFormComponent&#45;&gt;AppModule -->
<g id="edge10" class="edge">
<title>UserLoginFormComponent&#45;&gt;AppModule</title>
<path fill="none" stroke="black" d="M514,-85.02C514,-105.17 514,-134.8 514,-134.8 514,-134.8 1121.28,-134.8 1121.28,-134.8"/>
<polygon fill="black" stroke="black" points="1121.28,-138.3 1131.28,-134.8 1121.28,-131.3 1121.28,-138.3"/>
</g>
<!-- UserRegistrationFormComponent -->
<g id="node11" class="node">
<title>UserRegistrationFormComponent</title>
<polygon fill="#ffffb3" stroke="black" points="410.04,-84.8 203.96,-84.8 203.96,-48.8 410.04,-48.8 410.04,-84.8"/>
<text text-anchor="middle" x="307" y="-62.6" font-family="Times,serif" font-size="14.00">UserRegistrationFormComponent</text>
</g>
<!-- UserRegistrationFormComponent&#45;&gt;AppModule -->
<g id="edge11" class="edge">
<title>UserRegistrationFormComponent&#45;&gt;AppModule</title>
<path fill="none" stroke="black" d="M307,-84.84C307,-106.46 307,-139.8 307,-139.8 307,-139.8 1121.23,-139.8 1121.23,-139.8"/>
<polygon fill="black" stroke="black" points="1121.23,-143.3 1131.23,-139.8 1121.23,-136.3 1121.23,-143.3"/>
</g>
<!-- WelcomePageComponent -->
<g id="node12" class="node">
<title>WelcomePageComponent</title>
<polygon fill="#ffffb3" stroke="black" points="186.18,-84.8 23.82,-84.8 23.82,-48.8 186.18,-48.8 186.18,-84.8"/>
<text text-anchor="middle" x="105" y="-62.6" font-family="Times,serif" font-size="14.00">WelcomePageComponent</text>
</g>
<!-- WelcomePageComponent&#45;&gt;AppModule -->
<g id="edge12" class="edge">
<title>WelcomePageComponent&#45;&gt;AppModule</title>
<path fill="none" stroke="black" d="M105,-84.89C105,-107.93 105,-144.8 105,-144.8 105,-144.8 1121.13,-144.8 1121.13,-144.8"/>
<polygon fill="black" stroke="black" points="1121.13,-148.3 1131.13,-144.8 1121.13,-141.3 1121.13,-148.3"/>
</g>
<!-- AppComponent  -->
<g id="node15" class="node">
<title>AppComponent </title>
<polygon fill="#80b1d3" stroke="black" points="1227.44,-214.8 1118.56,-214.8 1118.56,-178.8 1227.44,-178.8 1227.44,-214.8"/>
<text text-anchor="middle" x="1173" y="-192.6" font-family="Times,serif" font-size="14.00">AppComponent </text>
</g>
<!-- AppModule&#45;&gt;AppComponent  -->
<g id="edge14" class="edge">
<title>AppModule&#45;&gt;AppComponent </title>
<path fill="none" stroke="black" stroke-dasharray="1,5" d="M1173,-149.91C1173,-149.91 1173,-168.79 1173,-168.79"/>
<polygon fill="black" stroke="black" points="1169.5,-168.79 1173,-178.79 1176.5,-168.79 1169.5,-168.79"/>
</g>
<!-- AppRoutingModule -->
<g id="node14" class="node">
<title>AppRoutingModule</title>
<polygon fill="#8dd3c7" stroke="black" points="2191.28,-84.8 2188.28,-88.8 2167.28,-88.8 2164.28,-84.8 2062.72,-84.8 2062.72,-48.8 2191.28,-48.8 2191.28,-84.8"/>
<text text-anchor="middle" x="2127" y="-62.6" font-family="Times,serif" font-size="14.00">AppRoutingModule</text>
</g>
<!-- AppRoutingModule&#45;&gt;AppModule -->
<g id="edge13" class="edge">
<title>AppRoutingModule&#45;&gt;AppModule</title>
<path fill="none" stroke="black" d="M2127,-84.89C2127,-107.93 2127,-144.8 2127,-144.8 2127,-144.8 1224.91,-144.8 1224.91,-144.8"/>
<polygon fill="black" stroke="black" points="1224.91,-141.3 1214.91,-144.8 1224.91,-148.3 1224.91,-141.3"/>
</g>
</g>
</svg>
