<?xml version="1.0" encoding="UTF-8" standalone="no"?>
<!DOCTYPE svg PUBLIC "-//W3C//DTD SVG 1.1//EN"
 "http://www.w3.org/Graphics/SVG/1.1/DTD/svg11.dtd">
<!-- Generated by graphviz version 3.0.0 (20220226.1711)
 -->
<!-- Title: dependencies Pages: 1 -->
<svg width="2223pt" height="247pt"
 viewBox="0.00 0.00 2223.00 246.80" xmlns="http://www.w3.org/2000/svg" xmlns:xlink="http://www.w3.org/1999/xlink">
<g id="graph0" class="graph" transform="scale(1 1) rotate(0) translate(4 242.8)">
<title>dependencies</title>
<polygon fill="white" stroke="transparent" points="-4,4 -4,-242.8 2219,-242.8 2219,4 -4,4"/>
<text text-anchor="middle" x="1107.5" y="-8.2" font-family="sans-serif" font-size="14.00">dependencies</text>
<g id="clust1" class="cluster">
<title>cluster_AppModule</title>
<polygon fill="none" stroke="black" stroke-dasharray="1,5" points="8,-32.8 8,-230.8 2207,-230.8 2207,-32.8 8,-32.8"/>
</g>
<g id="clust2" class="cluster">
<title>cluster_AppModule_declarations</title>
<polygon fill="none" stroke="black" points="168,-40.8 168,-92.8 2199,-92.8 2199,-40.8 168,-40.8"/>
</g>
<g id="clust15" class="cluster">
<title>cluster_AppModule_imports</title>
<polygon fill="none" stroke="black" points="16,-40.8 16,-92.8 160,-92.8 160,-40.8 16,-40.8"/>
</g>
<g id="clust17" class="cluster">
<title>cluster_AppModule_bootstrap</title>
<polygon fill="none" stroke="black" points="1111,-170.8 1111,-222.8 1235,-222.8 1235,-170.8 1111,-170.8"/>
</g>
<!-- AppComponent -->
<g id="node1" class="node">
<title>AppComponent</title>
<polygon fill="#ffffb3" stroke="black" points="2190.94,-84.8 2085.06,-84.8 2085.06,-48.8 2190.94,-48.8 2190.94,-84.8"/>
<text text-anchor="middle" x="2138" y="-62.6" font-family="Times,serif" font-size="14.00">AppComponent</text>
</g>
<!-- AppModule -->
<g id="node13" class="node">
<title>AppModule</title>
<polygon fill="#8dd3c7" stroke="black" points="1214.66,-149.8 1211.66,-153.8 1190.66,-153.8 1187.66,-149.8 1131.34,-149.8 1131.34,-113.8 1214.66,-113.8 1214.66,-149.8"/>
<text text-anchor="middle" x="1173" y="-127.6" font-family="Times,serif" font-size="14.00">AppModule</text>
</g>
<!-- AppComponent&#45;&gt;AppModule -->
<g id="edge1" class="edge">
<title>AppComponent&#45;&gt;AppModule</title>
<path fill="none" stroke="black" d="M2138,-84.89C2138,-107.93 2138,-144.8 2138,-144.8 2138,-144.8 1224.77,-144.8 1224.77,-144.8"/>
<polygon fill="black" stroke="black" points="1224.77,-141.3 1214.77,-144.8 1224.77,-148.3 1224.77,-141.3"/>
</g>
<!-- DeleteProfileComponent -->
<g id="node2" class="node">
<title>DeleteProfileComponent</title>
<polygon fill="#ffffb3" stroke="black" points="2066.97,-84.8 1911.03,-84.8 1911.03,-48.8 2066.97,-48.8 2066.97,-84.8"/>
<text text-anchor="middle" x="1989" y="-62.6" font-family="Times,serif" font-size="14.00">DeleteProfileComponent</text>
</g>
<!-- DeleteProfileComponent&#45;&gt;AppModule -->
<g id="edge2" class="edge">
<title>DeleteProfileComponent&#45;&gt;AppModule</title>
<path fill="none" stroke="black" d="M1989,-84.84C1989,-106.46 1989,-139.8 1989,-139.8 1989,-139.8 1224.87,-139.8 1224.87,-139.8"/>
<polygon fill="black" stroke="black" points="1224.87,-136.3 1214.87,-139.8 1224.87,-143.3 1224.87,-136.3"/>
</g>
<!-- DirectorCardComponent -->
<g id="node3" class="node">
<title>DirectorCardComponent</title>
<polygon fill="#ffffb3" stroke="black" points="1892.69,-84.8 1737.31,-84.8 1737.31,-48.8 1892.69,-48.8 1892.69,-84.8"/>
<text text-anchor="middle" x="1815" y="-62.6" font-family="Times,serif" font-size="14.00">DirectorCardComponent</text>
</g>
<!-- DirectorCardComponent&#45;&gt;AppModule -->
<g id="edge3" class="edge">
<title>DirectorCardComponent&#45;&gt;AppModule</title>
<path fill="none" stroke="black" d="M1815,-85.02C1815,-105.17 1815,-134.8 1815,-134.8 1815,-134.8 1225.12,-134.8 1225.12,-134.8"/>
<polygon fill="black" stroke="black" points="1225.12,-131.3 1215.12,-134.8 1225.12,-138.3 1225.12,-131.3"/>
</g>
<!-- EditProfileComponent -->
<g id="node4" class="node">
<title>EditProfileComponent</title>
<polygon fill="#ffffb3" stroke="black" points="1719.27,-84.8 1576.73,-84.8 1576.73,-48.8 1719.27,-48.8 1719.27,-84.8"/>
<text text-anchor="middle" x="1648" y="-62.6" font-family="Times,serif" font-size="14.00">EditProfileComponent</text>
</g>
<!-- EditProfileComponent&#45;&gt;AppModule -->
<g id="edge4" class="edge">
<title>EditProfileComponent&#45;&gt;AppModule</title>
<path fill="none" stroke="black" d="M1648,-85.02C1648,-103.63 1648,-129.8 1648,-129.8 1648,-129.8 1224.74,-129.8 1224.74,-129.8"/>
<polygon fill="black" stroke="black" points="1224.74,-126.3 1214.74,-129.8 1224.74,-133.3 1224.74,-126.3"/>
</g>
<!-- GenreCardComponent -->
<g id="node5" class="node">
<title>GenreCardComponent</title>
<polygon fill="#ffffb3" stroke="black" points="1558.25,-84.8 1415.75,-84.8 1415.75,-48.8 1558.25,-48.8 1558.25,-84.8"/>
<text text-anchor="middle" x="1487" y="-62.6" font-family="Times,serif" font-size="14.00">GenreCardComponent</text>
</g>
<!-- GenreCardComponent&#45;&gt;AppModule -->
<g id="edge5" class="edge">
<title>GenreCardComponent&#45;&gt;AppModule</title>
<path fill="none" stroke="black" d="M1487,-84.83C1487,-101.86 1487,-124.8 1487,-124.8 1487,-124.8 1224.7,-124.8 1224.7,-124.8"/>
<polygon fill="black" stroke="black" points="1224.7,-121.3 1214.7,-124.8 1224.7,-128.3 1224.7,-121.3"/>
</g>
<!-- MovieCardComponent -->
<g id="node6" class="node">
<title>MovieCardComponent</title>
<polygon fill="#ffffb3" stroke="black" points="1397.6,-84.8 1252.4,-84.8 1252.4,-48.8 1397.6,-48.8 1397.6,-84.8"/>
<text text-anchor="middle" x="1325" y="-62.6" font-family="Times,serif" font-size="14.00">MovieCardComponent</text>
</g>
<!-- MovieCardComponent&#45;&gt;AppModule -->
<g id="edge6" class="edge">
<title>MovieCardComponent&#45;&gt;AppModule</title>
<path fill="none" stroke="black" d="M1325,-85.04C1325,-100.37 1325,-119.8 1325,-119.8 1325,-119.8 1224.94,-119.8 1224.94,-119.8"/>
<polygon fill="black" stroke="black" points="1224.94,-116.3 1214.94,-119.8 1224.94,-123.3 1224.94,-116.3"/>
</g>
<!-- NavbarComponent -->
<g id="node7" class="node">
<title>NavbarComponent</title>
<polygon fill="#ffffb3" stroke="black" points="1234.03,-84.8 1111.97,-84.8 1111.97,-48.8 1234.03,-48.8 1234.03,-84.8"/>
<text text-anchor="middle" x="1173" y="-62.6" font-family="Times,serif" font-size="14.00">NavbarComponent</text>
</g>
<!-- NavbarComponent&#45;&gt;AppModule -->
<g id="edge7" class="edge">
<title>NavbarComponent&#45;&gt;AppModule</title>
<path fill="none" stroke="black" d="M1173,-84.91C1173,-84.91 1173,-103.79 1173,-103.79"/>
<polygon fill="black" stroke="black" points="1169.5,-103.79 1173,-113.79 1176.5,-103.79 1169.5,-103.79"/>
</g>
<!-- ProfilePageComponent -->
<g id="node8" class="node">
<title>ProfilePageComponent</title>
<polygon fill="#ffffb3" stroke="black" points="1093.15,-84.8 946.85,-84.8 946.85,-48.8 1093.15,-48.8 1093.15,-84.8"/>
<text text-anchor="middle" x="1020" y="-62.6" font-family="Times,serif" font-size="14.00">ProfilePageComponent</text>
</g>
<!-- ProfilePageComponent&#45;&gt;AppModule -->
<g id="edge8" class="edge">
<title>ProfilePageComponent&#45;&gt;AppModule</title>
<path fill="none" stroke="black" d="M1020,-85.04C1020,-100.37 1020,-119.8 1020,-119.8 1020,-119.8 1121.19,-119.8 1121.19,-119.8"/>
<polygon fill="black" stroke="black" points="1121.19,-123.3 1131.19,-119.8 1121.19,-116.3 1121.19,-123.3"/>
</g>
<!-- SynopsisCardComponent -->
<g id="node9" class="node">
<title>SynopsisCardComponent</title>
<polygon fill="#ffffb3" stroke="black" points="928.62,-84.8 769.38,-84.8 769.38,-48.8 928.62,-48.8 928.62,-84.8"/>
<text text-anchor="middle" x="849" y="-62.6" font-family="Times,serif" font-size="14.00">SynopsisCardComponent</text>
</g>
<!-- SynopsisCardComponent&#45;&gt;AppModule -->
<g id="edge9" class="edge">
<title>SynopsisCardComponent&#45;&gt;AppModule</title>
<path fill="none" stroke="black" d="M849,-84.83C849,-101.86 849,-124.8 849,-124.8 849,-124.8 1121.31,-124.8 1121.31,-124.8"/>
<polygon fill="black" stroke="black" points="1121.31,-128.3 1131.31,-124.8 1121.31,-121.3 1121.31,-128.3"/>
</g>
<!-- UserLoginFormComponent -->
<g id="node10" class="node">
<title>UserLoginFormComponent</title>
<polygon fill="#ffffb3" stroke="black" points="751.55,-84.8 580.45,-84.8 580.45,-48.8 751.55,-48.8 751.55,-84.8"/>
<text text-anchor="middle" x="666" y="-62.6" font-family="Times,serif" font-size="14.00">UserLoginFormComponent</text>
</g>
<!-- UserLoginFormComponent&#45;&gt;AppModule -->
<g id="edge10" class="edge">
<title>UserLoginFormComponent&#45;&gt;AppModule</title>
<path fill="none" stroke="black" d="M666,-85.02C666,-103.63 666,-129.8 666,-129.8 666,-129.8 1121.08,-129.8 1121.08,-129.8"/>
<polygon fill="black" stroke="black" points="1121.08,-133.3 1131.08,-129.8 1121.08,-126.3 1121.08,-133.3"/>
</g>
<!-- UserRegistrationFormComponent -->
<g id="node11" class="node">
<title>UserRegistrationFormComponent</title>
<polygon fill="#ffffb3" stroke="black" points="562.04,-84.8 355.96,-84.8 355.96,-48.8 562.04,-48.8 562.04,-84.8"/>
<text text-anchor="middle" x="459" y="-62.6" font-family="Times,serif" font-size="14.00">UserRegistrationFormComponent</text>
</g>
<!-- UserRegistrationFormComponent&#45;&gt;AppModule -->
<g id="edge11" class="edge">
<title>UserRegistrationFormComponent&#45;&gt;AppModule</title>
<path fill="none" stroke="black" d="M459,-85.02C459,-105.17 459,-134.8 459,-134.8 459,-134.8 1121.26,-134.8 1121.26,-134.8"/>
<polygon fill="black" stroke="black" points="1121.26,-138.3 1131.26,-134.8 1121.26,-131.3 1121.26,-138.3"/>
</g>
<!-- WelcomePageComponent -->
<g id="node12" class="node">
<title>WelcomePageComponent</title>
<polygon fill="#ffffb3" stroke="black" points="338.18,-84.8 175.82,-84.8 175.82,-48.8 338.18,-48.8 338.18,-84.8"/>
<text text-anchor="middle" x="257" y="-62.6" font-family="Times,serif" font-size="14.00">WelcomePageComponent</text>
</g>
<!-- WelcomePageComponent&#45;&gt;AppModule -->
<g id="edge12" class="edge">
<title>WelcomePageComponent&#45;&gt;AppModule</title>
<path fill="none" stroke="black" d="M257,-84.84C257,-106.46 257,-139.8 257,-139.8 257,-139.8 1121.26,-139.8 1121.26,-139.8"/>
<polygon fill="black" stroke="black" points="1121.26,-143.3 1131.26,-139.8 1121.26,-136.3 1121.26,-143.3"/>
</g>
<!-- AppComponent  -->
<g id="node15" class="node">
<title>AppComponent </title>
<polygon fill="#80b1d3" stroke="black" points="1227.44,-214.8 1118.56,-214.8 1118.56,-178.8 1227.44,-178.8 1227.44,-214.8"/>
<text text-anchor="middle" x="1173" y="-192.6" font-family="Times,serif" font-size="14.00">AppComponent </text>
</g>
<!-- AppModule&#45;&gt;AppComponent  -->
<g id="edge14" class="edge">
<title>AppModule&#45;&gt;AppComponent </title>
<path fill="none" stroke="black" stroke-dasharray="1,5" d="M1173,-149.91C1173,-149.91 1173,-168.79 1173,-168.79"/>
<polygon fill="black" stroke="black" points="1169.5,-168.79 1173,-178.79 1176.5,-168.79 1169.5,-168.79"/>
</g>
<!-- AppRoutingModule -->
<g id="node14" class="node">
<title>AppRoutingModule</title>
<polygon fill="#8dd3c7" stroke="black" points="152.28,-84.8 149.28,-88.8 128.28,-88.8 125.28,-84.8 23.72,-84.8 23.72,-48.8 152.28,-48.8 152.28,-84.8"/>
<text text-anchor="middle" x="88" y="-62.6" font-family="Times,serif" font-size="14.00">AppRoutingModule</text>
</g>
<!-- AppRoutingModule&#45;&gt;AppModule -->
<g id="edge13" class="edge">
<title>AppRoutingModule&#45;&gt;AppModule</title>
<path fill="none" stroke="black" d="M88,-84.89C88,-107.93 88,-144.8 88,-144.8 88,-144.8 1121.13,-144.8 1121.13,-144.8"/>
<polygon fill="black" stroke="black" points="1121.13,-148.3 1131.13,-144.8 1121.13,-141.3 1121.13,-148.3"/>
</g>
</g>
</svg>
